<svg xmlns="http://www.w3.org/2000/svg" xmlns:xlink="http://www.w3.org/1999/xlink" width="500" zoomAndPan="magnify" viewBox="0 0 375 374.999991" height="500" preserveAspectRatio="xMidYMid meet" version="1.0"><defs><g/><clipPath id="a30d95c9ee"><path d="M 118.023438 63.636719 L 256.773438 63.636719 L 256.773438 185.886719 L 118.023438 185.886719 Z M 118.023438 63.636719 " clip-rule="nonzero"/></clipPath><clipPath id="ecb3818054"><path d="M 144.6875 110.621094 L 230.3125 110.621094 L 230.3125 229.246094 L 144.6875 229.246094 Z M 144.6875 110.621094 " clip-rule="nonzero"/></clipPath><clipPath id="a1b8a60e50"><path d="M 186 131.445312 L 289 131.445312 L 289 238 L 186 238 Z M 186 131.445312 " clip-rule="nonzero"/></clipPath><clipPath id="9b3ad04def"><path d="M 86 131.445312 L 189 131.445312 L 189 238 L 86 238 Z M 86 131.445312 " clip-rule="nonzero"/></clipPath><clipPath id="53f07c4522"><path d="M 174.6875 134.386719 L 200.3125 134.386719 L 200.3125 160.011719 L 174.6875 160.011719 Z M 174.6875 134.386719 " clip-rule="nonzero"/></clipPath><clipPath id="f337098413"><path d="M 187.5 134.386719 C 180.425781 134.386719 174.6875 140.125 174.6875 147.199219 C 174.6875 154.277344 180.425781 160.011719 187.5 160.011719 C 194.574219 160.011719 200.3125 154.277344 200.3125 147.199219 C 200.3125 140.125 194.574219 134.386719 187.5 134.386719 Z M 187.5 134.386719 " clip-rule="nonzero"/></clipPath></defs><g clip-path="url(#a30d95c9ee)"><path fill="#00bf63" d="M 187.34375 63.789062 C 186.757812 63.859375 186.214844 64.121094 185.800781 64.542969 L 119.050781 131.292969 C 118.042969 132.308594 118.050781 133.953125 119.070312 134.960938 C 119.554688 135.441406 120.207031 135.710938 120.886719 135.710938 L 134.988281 135.710938 L 134.988281 183.1875 C 134.992188 184.613281 136.148438 185.769531 137.574219 185.773438 L 237.699219 185.773438 C 239.125 185.769531 240.28125 184.613281 240.285156 183.1875 L 240.285156 135.714844 L 254.386719 135.714844 C 255.820312 135.707031 256.976562 134.542969 256.972656 133.109375 C 256.96875 132.425781 256.699219 131.777344 256.222656 131.292969 L 239.953125 115.019531 L 239.953125 92.742188 C 239.949219 91.316406 238.792969 90.164062 237.367188 90.15625 L 226.351562 90.15625 C 224.925781 90.164062 223.773438 91.316406 223.765625 92.742188 L 223.765625 98.832031 L 189.472656 64.542969 C 188.914062 63.980469 188.128906 63.703125 187.34375 63.789062 Z M 187.34375 63.789062 " fill-opacity="1" fill-rule="nonzero"/></g><g clip-path="url(#ecb3818054)"><path fill="#7ed957" d="M 144.6875 110.621094 L 230.3125 110.621094 L 230.3125 229.355469 L 144.6875 229.355469 Z M 144.6875 110.621094 " fill-opacity="1" fill-rule="nonzero"/></g><g clip-path="url(#a1b8a60e50)"><path fill="#486c1b" d="M 187.476562 237.082031 C 183.628906 209.691406 198.234375 150.210938 287.441406 131.445312 C 293.121094 168.03125 281.082031 240.382812 187.476562 237.082031 Z M 187.476562 237.082031 " fill-opacity="1" fill-rule="nonzero"/></g><path fill="#6c9b31" d="M 262.027344 167.253906 C 269.121094 157.953125 275.324219 149.238281 279.921875 142.421875 L 280.945312 143.109375 C 276.042969 150.378906 269.328125 159.792969 261.648438 169.78125 C 261.644531 169.789062 261.644531 169.800781 261.640625 169.8125 C 261.597656 170.011719 261.464844 170.167969 261.289062 170.246094 C 260.761719 170.933594 260.226562 171.625 259.6875 172.316406 C 261.738281 171.152344 264.855469 169.628906 268.121094 168.109375 C 272.4375 166.097656 277.082031 164.058594 280.042969 162.792969 C 280.355469 162.660156 280.71875 162.804688 280.851562 163.117188 C 280.984375 163.433594 280.839844 163.792969 280.527344 163.929688 C 277.578125 165.1875 272.945312 167.222656 268.644531 169.226562 C 264.316406 171.242188 260.390625 173.199219 258.796875 174.3125 C 258.585938 174.460938 258.316406 174.457031 258.113281 174.328125 C 252.832031 181.054688 247.179688 187.933594 241.410156 194.492188 C 241.042969 194.910156 240.675781 195.328125 240.308594 195.742188 C 240.910156 195.476562 241.558594 195.203125 242.25 194.925781 C 244.304688 194.097656 246.742188 193.214844 249.261719 192.34375 C 254.300781 190.609375 259.695312 188.9375 263.128906 187.929688 C 263.453125 187.832031 263.796875 188.019531 263.894531 188.347656 C 263.992188 188.671875 263.804688 189.015625 263.476562 189.113281 C 260.058594 190.117188 254.679688 191.785156 249.664062 193.511719 C 247.152344 194.378906 244.738281 195.253906 242.710938 196.074219 C 240.667969 196.894531 239.050781 197.640625 238.105469 198.238281 C 238.085938 198.25 238.0625 198.265625 238.039062 198.273438 C 232.3125 204.609375 226.515625 210.558594 220.890625 215.671875 C 221.675781 215.464844 222.542969 215.253906 223.472656 215.050781 C 225.769531 214.542969 228.472656 214.046875 231.257812 213.585938 C 236.832031 212.664062 242.761719 211.882812 246.523438 211.445312 C 246.863281 211.40625 247.167969 211.648438 247.207031 211.988281 C 247.246094 212.324219 247.003906 212.632812 246.667969 212.671875 C 242.917969 213.105469 237.007812 213.886719 231.460938 214.804688 C 228.6875 215.261719 226.007812 215.753906 223.738281 216.253906 C 221.515625 216.746094 219.726562 217.238281 218.617188 217.699219 C 218.324219 217.953125 218.03125 218.207031 217.742188 218.460938 C 213.878906 221.789062 210.105469 224.683594 206.507812 226.984375 C 206.496094 227.019531 206.484375 227.050781 206.46875 227.082031 C 206.355469 227.367188 206.050781 227.519531 205.761719 227.453125 C 202.488281 229.488281 199.363281 231.015625 196.453125 231.90625 L 196.089844 230.726562 C 198.996094 229.835938 202.152344 228.273438 205.5 226.164062 C 206.402344 223.679688 207.574219 218.632812 208.699219 213.15625 C 209.890625 207.347656 211.015625 201.128906 211.6875 197.183594 C 211.746094 196.84375 212.0625 196.621094 212.398438 196.675781 C 212.734375 196.734375 212.960938 197.050781 212.90625 197.386719 C 212.230469 201.347656 211.105469 207.578125 209.90625 213.40625 C 208.976562 217.933594 207.996094 222.265625 207.148438 225.089844 C 210.28125 222.984375 213.5625 220.429688 216.9375 217.523438 C 217.242188 217.261719 217.546875 216.996094 217.855469 216.726562 C 217.867188 216.710938 217.882812 216.699219 217.898438 216.6875 C 224.445312 210.949219 231.289062 203.957031 238.027344 196.445312 C 237.90625 196.292969 237.859375 196.089844 237.917969 195.890625 C 238.582031 193.53125 239.242188 188.074219 239.796875 182.140625 C 240.347656 176.234375 240.789062 169.933594 241.023438 165.933594 C 241.042969 165.59375 241.335938 165.332031 241.675781 165.355469 C 242.015625 165.375 242.277344 165.664062 242.253906 166.007812 C 242.019531 170.015625 241.578125 176.332031 241.027344 182.253906 C 240.558594 187.25 240.007812 192.023438 239.421875 194.878906 C 239.777344 194.480469 240.132812 194.078125 240.484375 193.679688 C 247.476562 185.726562 254.296875 177.308594 260.496094 169.253906 C 260.875 167.242188 261.210938 163.085938 261.476562 158.578125 C 261.753906 153.859375 261.949219 148.820312 262.046875 145.621094 C 262.054688 145.28125 262.339844 145.015625 262.683594 145.023438 C 263.023438 145.035156 263.289062 145.320312 263.28125 145.660156 C 263.183594 148.867188 262.988281 153.914062 262.707031 158.648438 C 262.519531 161.871094 262.292969 164.976562 262.027344 167.253906 Z M 262.027344 167.253906 " fill-opacity="1" fill-rule="nonzero"/><g clip-path="url(#9b3ad04def)"><path fill="#486c1b" d="M 187.511719 237.082031 C 191.359375 209.691406 176.753906 150.210938 87.546875 131.445312 C 81.867188 168.03125 93.90625 240.382812 187.511719 237.082031 Z M 187.511719 237.082031 " fill-opacity="1" fill-rule="nonzero"/></g><path fill="#6c9b31" d="M 112.960938 167.253906 C 105.867188 157.953125 99.664062 149.238281 95.070312 142.421875 L 94.046875 143.109375 C 98.945312 150.378906 105.660156 159.792969 113.339844 169.78125 C 113.34375 169.789062 113.34375 169.800781 113.347656 169.8125 C 113.390625 170.011719 113.523438 170.167969 113.699219 170.246094 C 114.226562 170.933594 114.761719 171.625 115.304688 172.316406 C 113.25 171.152344 110.132812 169.628906 106.867188 168.109375 C 102.550781 166.097656 97.90625 164.058594 94.949219 162.792969 C 94.632812 162.660156 94.269531 162.804688 94.136719 163.117188 C 94.003906 163.433594 94.148438 163.792969 94.460938 163.929688 C 97.414062 165.1875 102.042969 167.222656 106.34375 169.226562 C 110.671875 171.242188 114.597656 173.199219 116.191406 174.3125 C 116.402344 174.460938 116.671875 174.457031 116.875 174.328125 C 122.15625 181.054688 127.808594 187.933594 133.578125 194.492188 C 133.945312 194.910156 134.3125 195.328125 134.679688 195.742188 C 134.082031 195.476562 133.429688 195.203125 132.742188 194.925781 C 130.683594 194.097656 128.246094 193.214844 125.730469 192.34375 C 120.691406 190.609375 115.292969 188.9375 111.859375 187.929688 C 111.535156 187.832031 111.191406 188.019531 111.09375 188.347656 C 111 188.671875 111.183594 189.015625 111.511719 189.113281 C 114.933594 190.117188 120.308594 191.785156 125.328125 193.511719 C 127.835938 194.378906 130.25 195.253906 132.28125 196.074219 C 134.320312 196.894531 135.9375 197.640625 136.882812 198.238281 C 136.902344 198.25 136.925781 198.265625 136.949219 198.273438 C 142.675781 204.609375 148.472656 210.558594 154.101562 215.671875 C 153.3125 215.464844 152.445312 215.253906 151.519531 215.050781 C 149.21875 214.542969 146.515625 214.046875 143.730469 213.585938 C 138.15625 212.664062 132.226562 211.882812 128.464844 211.445312 C 128.125 211.40625 127.820312 211.648438 127.78125 211.988281 C 127.742188 212.324219 127.984375 212.632812 128.324219 212.671875 C 132.070312 213.105469 137.980469 213.886719 143.527344 214.804688 C 146.304688 215.261719 148.980469 215.753906 151.25 216.253906 C 153.472656 216.746094 155.265625 217.238281 156.371094 217.699219 C 156.664062 217.953125 156.957031 218.207031 157.246094 218.460938 C 161.109375 221.789062 164.882812 224.683594 168.480469 226.984375 C 168.492188 227.019531 168.507812 227.050781 168.519531 227.082031 C 168.632812 227.367188 168.9375 227.519531 169.226562 227.453125 C 172.503906 229.488281 175.628906 231.015625 178.535156 231.90625 L 178.898438 230.726562 C 175.992188 229.835938 172.835938 228.273438 169.488281 226.164062 C 168.585938 223.679688 167.414062 218.632812 166.289062 213.15625 C 165.097656 207.347656 163.972656 201.128906 163.300781 197.183594 C 163.242188 196.84375 162.925781 196.621094 162.589844 196.675781 C 162.253906 196.734375 162.027344 197.050781 162.082031 197.386719 C 162.757812 201.347656 163.882812 207.578125 165.082031 213.40625 C 166.011719 217.933594 166.992188 222.265625 167.839844 225.089844 C 164.707031 222.984375 161.429688 220.429688 158.050781 217.523438 C 157.746094 217.261719 157.441406 216.996094 157.132812 216.726562 C 157.121094 216.710938 157.105469 216.699219 157.089844 216.6875 C 150.542969 210.949219 143.703125 203.957031 136.960938 196.445312 C 137.082031 196.292969 137.128906 196.089844 137.074219 195.890625 C 136.40625 193.53125 135.746094 188.074219 135.191406 182.140625 C 134.640625 176.234375 134.203125 169.933594 133.964844 165.933594 C 133.945312 165.59375 133.652344 165.332031 133.3125 165.355469 C 132.972656 165.375 132.714844 165.664062 132.734375 166.007812 C 132.96875 170.015625 133.410156 176.332031 133.960938 182.253906 C 134.429688 187.25 134.980469 192.023438 135.566406 194.878906 C 135.210938 194.480469 134.859375 194.078125 134.503906 193.679688 C 127.515625 185.726562 120.691406 177.308594 114.492188 169.253906 C 114.113281 167.242188 113.777344 163.085938 113.511719 158.578125 C 113.234375 153.859375 113.039062 148.820312 112.941406 145.621094 C 112.933594 145.28125 112.648438 145.015625 112.308594 145.023438 C 111.964844 145.035156 111.699219 145.320312 111.707031 145.660156 C 111.804688 148.867188 112.003906 153.914062 112.28125 158.648438 C 112.46875 161.871094 112.695312 164.976562 112.960938 167.253906 Z M 112.960938 167.253906 " fill-opacity="1" fill-rule="nonzero"/><path stroke-linecap="round" transform="matrix(0.530591, -0.530069, 0.530069, 0.530591, 149.00226, 130.822859)" fill="none" stroke-linejoin="miter" d="M 3.500698 3.499819 L 79.555203 3.502912 " stroke="#ffffff" stroke-width="7" stroke-opacity="1" stroke-miterlimit="4"/><path stroke-linecap="round" transform="matrix(-0.53033, -0.53033, 0.53033, -0.53033, 222.279571, 134.441593)" fill="none" stroke-linejoin="miter" d="M 3.497298 3.500465 L 79.334505 3.500465 " stroke="#ffffff" stroke-width="7" stroke-opacity="1" stroke-miterlimit="4"/><g clip-path="url(#53f07c4522)"><g clip-path="url(#f337098413)"><path fill="#ffffff" d="M 174.6875 134.386719 L 200.3125 134.386719 L 200.3125 160.011719 L 174.6875 160.011719 Z M 174.6875 134.386719 " fill-opacity="1" fill-rule="nonzero"/></g></g><g fill="#00bf63" fill-opacity="1"><g transform="translate(218.596486, 304.591918)"><g><path d="M 2.515625 -20 L 8.734375 -20 C 11.578125 -20 13.640625 -19.59375 14.921875 -18.78125 C 16.203125 -17.976562 16.84375 -16.695312 16.84375 -14.9375 C 16.84375 -13.738281 16.5625 -12.753906 16 -11.984375 C 15.4375 -11.222656 14.691406 -10.765625 13.765625 -10.609375 L 13.765625 -10.484375 C 15.023438 -10.191406 15.9375 -9.660156 16.5 -8.890625 C 17.0625 -8.117188 17.34375 -7.085938 17.34375 -5.796875 C 17.34375 -3.972656 16.679688 -2.550781 15.359375 -1.53125 C 14.046875 -0.507812 12.257812 0 10 0 L 2.515625 0 Z M 6.75 -12.078125 L 9.21875 -12.078125 C 10.363281 -12.078125 11.191406 -12.253906 11.703125 -12.609375 C 12.222656 -12.960938 12.484375 -13.550781 12.484375 -14.375 C 12.484375 -15.144531 12.203125 -15.695312 11.640625 -16.03125 C 11.085938 -16.363281 10.203125 -16.53125 8.984375 -16.53125 L 6.75 -16.53125 Z M 6.75 -8.71875 L 6.75 -3.5 L 9.515625 -3.5 C 10.679688 -3.5 11.539062 -3.722656 12.09375 -4.171875 C 12.65625 -4.617188 12.9375 -5.300781 12.9375 -6.21875 C 12.9375 -7.882812 11.753906 -8.71875 9.390625 -8.71875 Z M 6.75 -8.71875 "/></g></g></g><g fill="#00bf63" fill-opacity="1"><g transform="translate(237.417925, 304.591918)"><g><path d="M 19.109375 -10.1875 C 19.109375 -6.894531 18.171875 -4.375 16.296875 -2.625 C 14.421875 -0.875 11.71875 0 8.1875 0 L 2.515625 0 L 2.515625 -20 L 8.796875 -20 C 12.054688 -20 14.585938 -19.132812 16.390625 -17.40625 C 18.203125 -15.6875 19.109375 -13.28125 19.109375 -10.1875 Z M 14.703125 -10.078125 C 14.703125 -14.378906 12.804688 -16.53125 9.015625 -16.53125 L 6.75 -16.53125 L 6.75 -3.5 L 8.578125 -3.5 C 12.660156 -3.5 14.703125 -5.691406 14.703125 -10.078125 Z M 14.703125 -10.078125 "/></g></g></g><g fill="#000000" fill-opacity="1"><g transform="translate(82.280984, 272.67209)"><g><path d="M 27.53125 -12.0625 C 27.902344 -15.132812 28.269531 -18.207031 28.640625 -21.3125 C 29.121094 -24.828125 29.640625 -28.34375 30.082031 -31.859375 C 30.195312 -32.5625 30.230469 -33.304688 30.230469 -34.042969 C 30.230469 -34.894531 29.824219 -35.265625 28.972656 -35.300781 C 28.269531 -35.339844 27.640625 -35.078125 27.160156 -34.5625 C 26.457031 -33.820312 25.753906 -33.082031 25.125 -32.304688 C 20.832031 -26.902344 17.167969 -21.09375 14.171875 -14.875 C 12.839844 -12.136719 11.546875 -9.363281 10.25 -6.625 C 9.917969 -5.921875 9.511719 -5.441406 8.734375 -5.144531 C 7.695312 -4.738281 6.660156 -4.253906 5.660156 -3.738281 C 4.550781 -3.183594 3.476562 -2.554688 2.441406 -1.925781 C 2.109375 -1.738281 1.738281 -1.480469 1.851562 -0.960938 C 2.441406 -0.40625 3.144531 -0.371094 3.886719 -0.628906 C 5.070312 -1.035156 6.179688 -1.515625 7.363281 -1.960938 C 7.585938 -2.035156 7.84375 -2 8.214844 -2.070312 C 7.992188 -1.40625 7.808594 -0.960938 7.621094 -0.480469 C 6.992188 1.441406 6.289062 3.367188 5.734375 5.292969 C 5.441406 6.253906 5.328125 7.289062 5.179688 8.289062 C 5.144531 8.546875 5.179688 8.878906 5.328125 9.101562 C 5.441406 9.289062 5.734375 9.472656 5.996094 9.472656 C 6.140625 9.511719 6.402344 9.289062 6.476562 9.140625 C 6.699219 8.4375 6.773438 7.695312 7.066406 6.992188 C 8.289062 3.8125 9.582031 0.628906 10.84375 -2.589844 C 11.136719 -3.332031 11.617188 -3.738281 12.359375 -3.996094 C 15.875 -5.253906 19.351562 -6.550781 22.867188 -7.808594 C 23.199219 -7.917969 23.609375 -7.957031 24.050781 -8.066406 C 24.050781 -7.476562 24.089844 -6.957031 24.050781 -6.476562 C 23.902344 -4.957031 23.792969 -3.441406 23.644531 -1.925781 C 23.199219 2.515625 22.941406 6.957031 23.089844 11.398438 C 23.128906 12.691406 23.273438 13.988281 23.421875 15.28125 C 23.496094 15.835938 23.644531 16.390625 23.867188 16.910156 C 24.125 17.578125 24.644531 18.019531 25.382812 18.058594 C 26.160156 18.132812 26.789062 17.871094 27.234375 17.019531 C 26.753906 16.910156 26.347656 16.800781 25.902344 16.652344 C 25.828125 16.28125 25.753906 15.984375 25.71875 15.652344 C 25.421875 13.320312 25.421875 11.027344 25.605469 8.734375 C 26.011719 3.886719 26.421875 -0.925781 26.863281 -5.773438 C 26.9375 -6.882812 27.125 -7.992188 27.269531 -9.101562 C 30.046875 -9.878906 32.636719 -10.695312 35.410156 -10.914062 C 35.410156 -11.175781 35.410156 -11.324219 35.375 -11.507812 C 35.339844 -11.65625 35.226562 -11.804688 35.117188 -11.953125 C 32.601562 -12.394531 30.230469 -11.546875 27.605469 -11.210938 C 27.566406 -11.617188 27.53125 -11.839844 27.53125 -12.0625 Z M 27.679688 -32.082031 C 27.566406 -30.195312 27.125 -28.492188 26.828125 -26.753906 C 26.53125 -24.941406 26.234375 -23.089844 25.976562 -21.277344 C 25.679688 -19.464844 25.421875 -17.6875 25.164062 -15.910156 C 24.902344 -14.136719 24.71875 -12.359375 24.460938 -10.433594 C 22.609375 -9.804688 20.683594 -9.398438 18.796875 -8.808594 C 16.949219 -8.214844 15.097656 -7.621094 13.171875 -7.03125 C 14.320312 -11.546875 24.050781 -28.34375 27.679688 -32.082031 Z M 27.679688 -32.082031 "/></g></g></g><g fill="#000000" fill-opacity="1"><g transform="translate(117.135108, 272.67209)"><g><path d="M 17.722656 -3.476562 C 16.132812 -2.515625 14.542969 -1.515625 12.949219 -0.554688 C 12.765625 -0.445312 12.507812 -0.371094 12.0625 -0.222656 C 12.25 -0.851562 12.359375 -1.257812 12.46875 -1.664062 C 13.246094 -3.921875 13.875 -6.214844 14.136719 -8.585938 C 14.210938 -9.363281 14.246094 -10.140625 14.171875 -10.914062 C 14.0625 -12.0625 13.359375 -12.582031 12.210938 -12.542969 C 11.582031 -12.542969 10.988281 -12.285156 10.546875 -11.839844 C 10.101562 -11.433594 9.695312 -10.953125 9.289062 -10.472656 C 8.734375 -9.84375 8.25 -9.175781 7.769531 -8.585938 C 5.070312 -8.398438 3.921875 -8.03125 1.738281 -6.4375 C 0.886719 -5.773438 0.109375 -5.03125 -0.667969 -4.328125 C -1 -3.996094 -1.257812 -3.664062 -1.515625 -3.257812 C -2.367188 -1.851562 -1.851562 -0.703125 -0.183594 -0.480469 C 0.445312 -0.40625 1.148438 -0.519531 1.8125 -0.628906 C 2.886719 -0.886719 3.8125 -1.441406 4.589844 -2.183594 C 5.476562 -2.960938 6.363281 -3.773438 7.105469 -4.664062 C 8.289062 -6.105469 9.398438 -7.621094 10.507812 -9.101562 C 10.914062 -9.621094 11.25 -10.210938 11.878906 -10.621094 C 12.394531 -10.066406 12.210938 -9.4375 12.175781 -8.84375 C 11.988281 -5.773438 11.101562 -2.847656 10.140625 0.0351562 C 9.769531 1.148438 9.140625 1.960938 8.140625 2.589844 C 4.035156 5.21875 0 7.882812 -4.035156 10.582031 C -6.550781 12.285156 -8.953125 14.136719 -11.0625 16.355469 C -11.878906 17.242188 -12.582031 18.167969 -13.210938 19.167969 C -13.542969 19.648438 -13.691406 20.316406 -13.765625 20.90625 C -13.875 21.792969 -13.507812 22.277344 -12.691406 22.609375 C -11.804688 22.941406 -10.914062 22.941406 -10.027344 22.757812 C -8.585938 22.496094 -7.214844 21.980469 -5.882812 21.351562 C 0.40625 18.242188 5.105469 13.542969 8.472656 7.476562 C 9.214844 6.070312 9.953125 4.664062 10.546875 3.21875 C 11.027344 1.925781 11.839844 1.035156 12.988281 0.296875 C 14.875 -0.886719 16.726562 -2.183594 18.574219 -3.476562 C 18.871094 -3.664062 19.167969 -3.921875 19.425781 -4.144531 C 18.796875 -4.035156 18.242188 -3.773438 17.722656 -3.476562 Z M 6.882812 -7.328125 C 5.585938 -5.550781 4.21875 -3.886719 2.441406 -2.554688 C 2 -2.257812 1.515625 -2 0.851562 -1.589844 C 0.628906 -2.628906 1.035156 -3.109375 1.40625 -3.550781 C 2.886719 -5.328125 4.589844 -6.84375 6.84375 -7.84375 C 6.84375 -7.621094 6.957031 -7.4375 6.882812 -7.328125 Z M 8.289062 4.441406 C 5.292969 10.914062 1.035156 16.207031 -5.253906 19.722656 C -6.625 20.5 -8.140625 21.019531 -9.582031 21.648438 C -9.84375 21.757812 -10.101562 21.832031 -10.398438 21.867188 C -11.433594 22.054688 -11.914062 21.535156 -11.546875 20.5 C -11.324219 19.871094 -11.027344 19.242188 -10.621094 18.722656 C -10.027344 17.910156 -9.398438 17.09375 -8.660156 16.429688 C -6.84375 14.726562 -5.03125 13.023438 -3.035156 11.546875 C 0.40625 8.992188 3.960938 6.585938 7.4375 4.144531 C 7.695312 3.960938 7.992188 3.847656 8.511719 3.625 C 8.398438 4.070312 8.363281 4.253906 8.289062 4.441406 Z M 8.289062 4.441406 "/></g></g></g><g fill="#000000" fill-opacity="1"><g transform="translate(134.747169, 272.67209)"><g><path d="M 10.84375 -10.472656 C 10.582031 -11.433594 9.992188 -11.878906 8.992188 -11.804688 C 8.214844 -11.730469 7.585938 -11.433594 7.066406 -10.84375 C 6.140625 -9.730469 5.21875 -8.585938 4.253906 -7.476562 C 4.035156 -7.179688 3.773438 -6.882812 3.292969 -6.363281 C 3.441406 -8.398438 4.402344 -9.917969 4.515625 -11.730469 C 3.773438 -11.988281 3.332031 -11.878906 3.035156 -11.359375 C 2.8125 -11.027344 2.628906 -10.65625 2.480469 -10.324219 C 1.332031 -7.621094 0.183594 -4.921875 -0.960938 -2.21875 C -1.148438 -1.777344 -1.296875 -1.296875 -1.40625 -0.8125 C -1.589844 -0.0351562 -1.222656 0.40625 -0.40625 0.40625 C 0.148438 0.40625 0.703125 0.257812 1.109375 -0.183594 C 1.589844 -0.628906 2.070312 -1.109375 2.480469 -1.664062 C 3.332031 -2.738281 4.070312 -3.847656 4.882812 -4.921875 C 5.882812 -6.253906 6.917969 -7.585938 7.992188 -8.917969 C 8.214844 -9.214844 8.511719 -9.4375 8.917969 -9.769531 C 9.101562 -9.214844 9.25 -8.808594 9.363281 -8.398438 C 9.472656 -8.066406 9.511719 -7.734375 9.695312 -7.4375 C 9.804688 -7.253906 10.101562 -7.066406 10.324219 -7.03125 C 10.433594 -7.03125 10.695312 -7.289062 10.769531 -7.476562 C 11.0625 -8.472656 11.0625 -9.472656 10.84375 -10.472656 Z M 10.84375 -10.472656 "/></g></g></g><g fill="#000000" fill-opacity="1"><g transform="translate(147.697214, 272.67209)"><g><path d="M 12.542969 -9.65625 C 11.804688 -9.363281 11.617188 -8.808594 11.324219 -8.363281 C 9.511719 -5.957031 7.363281 -3.921875 4.773438 -2.332031 C 4.070312 -1.886719 3.367188 -1.441406 2.367188 -1.367188 C 2.21875 -1.738281 2.035156 -2.070312 2 -2.441406 C 2 -2.886719 2.070312 -3.332031 2.183594 -3.773438 C 2.664062 -5.328125 3.144531 -6.882812 3.664062 -8.4375 C 3.8125 -8.953125 4.105469 -9.472656 4.035156 -10.027344 C 2.773438 -10.472656 2.40625 -10.398438 1.851562 -9.472656 C 0.8125 -7.660156 0 -5.734375 -0.480469 -3.699219 C -0.519531 -3.476562 -0.554688 -3.257812 -0.59375 -3.035156 C -0.8125 -1.222656 -0.0351562 -0.257812 1.8125 -0.183594 C 3.109375 -0.109375 4.253906 -0.445312 5.367188 -1.109375 C 7.917969 -2.703125 10.101562 -4.699219 11.730469 -7.289062 C 12.0625 -7.808594 12.320312 -8.363281 12.542969 -8.953125 C 12.617188 -9.101562 12.542969 -9.324219 12.542969 -9.65625 Z M 4.738281 -13.507812 C 4.921875 -13.652344 5.070312 -13.800781 5.179688 -13.988281 C 5.441406 -14.542969 5.660156 -15.097656 5.996094 -15.761719 C 4.957031 -16.058594 4.070312 -16.023438 3.21875 -15.542969 C 2.554688 -15.171875 2.332031 -14.320312 2.664062 -13.800781 C 3.109375 -13.136719 4.105469 -12.988281 4.738281 -13.507812 Z M 4.738281 -13.507812 "/></g></g></g><g fill="#000000" fill-opacity="1"><g transform="translate(158.464248, 272.67209)"><g><path d="M 23.199219 -28.457031 C 24.050781 -29.304688 24.605469 -30.34375 24.902344 -31.527344 C 25.382812 -33.5625 24.164062 -35.226562 22.015625 -35.410156 C 20.609375 -35.523438 19.351562 -35.042969 18.28125 -34.152344 C 17.09375 -33.15625 16.097656 -32.007812 15.207031 -30.785156 C 13.652344 -28.640625 12.25 -26.382812 11.0625 -24.015625 C 6.957031 -15.984375 3.996094 -7.546875 1.8125 1.148438 C 1.367188 2.847656 1.109375 4.589844 1.257812 6.363281 C 1.367188 8.105469 2.183594 8.84375 3.960938 8.953125 C 5.105469 8.992188 6.214844 8.695312 7.179688 8.066406 C 8.140625 7.402344 9.101562 6.699219 9.953125 5.882812 C 11.210938 4.664062 12.394531 3.367188 13.542969 2.070312 C 16.28125 -1.148438 18.871094 -4.515625 21.09375 -8.140625 C 21.5 -8.84375 21.980469 -9.546875 22.238281 -10.507812 C 21.867188 -10.472656 21.535156 -10.546875 21.351562 -10.433594 C 21.054688 -10.210938 20.796875 -9.878906 20.535156 -9.582031 C 19.796875 -8.621094 19.058594 -7.621094 18.28125 -6.625 C 15.355469 -2.8125 12.359375 0.925781 8.878906 4.21875 C 7.734375 5.292969 6.4375 6.214844 5.21875 7.179688 C 4.957031 7.363281 4.625 7.402344 4.328125 7.511719 C 3.847656 6.179688 3.738281 5.847656 3.886719 4.773438 C 4.070312 3.257812 4.253906 1.738281 4.589844 0.257812 C 6.253906 -6.882812 8.621094 -13.800781 11.691406 -20.5 C 13.136719 -23.609375 14.726562 -26.679688 16.761719 -29.453125 C 17.652344 -30.710938 18.648438 -31.824219 19.6875 -32.96875 C 20.167969 -33.488281 20.722656 -34.007812 21.5 -34.078125 C 22.164062 -33.785156 22.425781 -33.191406 22.496094 -32.601562 C 22.609375 -31.898438 22.609375 -31.15625 22.570312 -30.417969 C 22.535156 -29.714844 22.351562 -28.972656 22.128906 -27.902344 C 22.683594 -28.160156 23.015625 -28.234375 23.199219 -28.457031 Z M 23.199219 -28.457031 "/></g></g></g><g fill="#000000" fill-opacity="1"><g transform="translate(178.407324, 272.67209)"><g><path d="M 8.808594 -3.773438 C 8.105469 -3.550781 7.402344 -3.332031 6.625 -3.625 C 6.84375 -4.179688 7.03125 -4.699219 7.214844 -5.179688 C 7.660156 -6.402344 8.03125 -7.621094 8.066406 -8.917969 C 8.140625 -10.582031 7.511719 -11.546875 6.328125 -11.691406 C 5.996094 -11.730469 5.660156 -11.691406 5.328125 -11.617188 C 4.292969 -11.398438 3.402344 -10.730469 2.589844 -9.84375 C 1.738281 -8.917969 1.109375 -7.84375 1.148438 -6.402344 C 0.738281 -5.734375 0.332031 -5.105469 -0.0351562 -4.476562 C -0.445312 -3.664062 -0.851562 -2.8125 -1 -1.851562 C -1.183594 -0.519531 -0.851562 0.371094 0.0742188 0.667969 C 0.628906 0.851562 1.257812 0.851562 1.8125 0.738281 C 2.703125 0.59375 3.515625 0 4.253906 -0.738281 C 4.847656 -1.296875 5.441406 -1.886719 6.105469 -2.554688 C 8.585938 -2.628906 8.878906 -2.703125 9.804688 -3.625 C 9.25 -3.960938 9.25 -3.960938 8.808594 -3.773438 Z M 1.148438 -0.0742188 C 0.777344 -0.0351562 0.480469 -0.257812 0.480469 -0.777344 C 0.445312 -1.257812 0.480469 -1.777344 0.59375 -2.257812 C 0.851562 -3.21875 1.183594 -4.144531 1.777344 -5.03125 C 2.292969 -4.589844 2.664062 -4.21875 3.070312 -3.886719 C 3.476562 -3.589844 3.921875 -3.292969 4.367188 -2.996094 C 3.738281 -1.703125 2.109375 -0.257812 1.148438 -0.0742188 Z M 5.21875 -4.144531 C 4.328125 -4.589844 3.773438 -5.21875 3.515625 -6.363281 C 3.367188 -7.03125 3.367188 -7.546875 3.664062 -8.140625 C 4.292969 -9.324219 5.070312 -10.285156 6.105469 -10.695312 C 6.585938 -10.433594 6.660156 -9.84375 6.660156 -9.289062 C 6.660156 -7.402344 6.140625 -5.699219 5.21875 -4.144531 Z M 5.21875 -4.144531 "/></g></g></g><g fill="#000000" fill-opacity="1"><g transform="translate(187.213354, 272.67209)"><g><path d="M 12.804688 -4.105469 C 11.582031 -3.367188 10.546875 -2.292969 9.027344 -1.589844 C 9.214844 -2.332031 9.324219 -2.886719 9.511719 -3.367188 C 10.101562 -4.957031 10.730469 -6.550781 11.285156 -8.140625 C 11.507812 -8.695312 11.691406 -9.289062 11.804688 -9.917969 C 11.953125 -10.914062 11.507812 -11.324219 10.472656 -11.359375 C 9.804688 -11.398438 9.214844 -11.25 8.695312 -10.878906 C 7.808594 -10.210938 6.882812 -9.546875 6.03125 -8.808594 C 5.03125 -7.917969 4.105469 -6.917969 3.144531 -5.957031 C 2.960938 -5.808594 2.738281 -5.699219 2.292969 -5.367188 C 2.664062 -6.625 2.996094 -7.585938 3.21875 -8.546875 C 3.476562 -9.621094 3.144531 -9.992188 2.035156 -9.953125 C 1.8125 -9.953125 1.628906 -9.804688 1.367188 -9.730469 C 0.851562 -7.992188 0.296875 -6.253906 -0.148438 -4.515625 C -0.445312 -3.292969 0.148438 -2.664062 1.40625 -2.960938 C 1.8125 -3.035156 2.21875 -3.292969 2.589844 -3.550781 C 3.183594 -4.035156 3.773438 -4.589844 4.328125 -5.105469 C 5.292969 -6.070312 6.253906 -7.03125 7.214844 -7.957031 C 7.84375 -8.546875 8.511719 -9.027344 9.175781 -9.582031 C 9.472656 -8.917969 9.101562 -8.472656 8.953125 -8.03125 C 8.398438 -6.328125 7.769531 -4.625 7.214844 -2.921875 C 7.03125 -2.332031 6.992188 -1.703125 6.957031 -1.074219 C 6.957031 -0.480469 7.289062 -0.148438 7.882812 -0.0742188 C 8.324219 -0.0351562 8.808594 -0.0351562 9.214844 -0.183594 C 9.769531 -0.40625 10.324219 -0.703125 10.804688 -1.109375 C 12.617188 -2.589844 14.429688 -4.105469 16.246094 -5.625 C 16.355469 -5.734375 16.429688 -5.882812 16.652344 -6.179688 C 14.949219 -5.996094 13.949219 -4.882812 12.804688 -4.105469 Z M 12.804688 -4.105469 "/></g></g></g><g fill="#000000" fill-opacity="1"><g transform="translate(202.050401, 272.67209)"><g><path d="M 12.804688 -4.105469 C 11.582031 -3.367188 10.546875 -2.292969 9.027344 -1.589844 C 9.214844 -2.332031 9.324219 -2.886719 9.511719 -3.367188 C 10.101562 -4.957031 10.730469 -6.550781 11.285156 -8.140625 C 11.507812 -8.695312 11.691406 -9.289062 11.804688 -9.917969 C 11.953125 -10.914062 11.507812 -11.324219 10.472656 -11.359375 C 9.804688 -11.398438 9.214844 -11.25 8.695312 -10.878906 C 7.808594 -10.210938 6.882812 -9.546875 6.03125 -8.808594 C 5.03125 -7.917969 4.105469 -6.917969 3.144531 -5.957031 C 2.960938 -5.808594 2.738281 -5.699219 2.292969 -5.367188 C 2.664062 -6.625 2.996094 -7.585938 3.21875 -8.546875 C 3.476562 -9.621094 3.144531 -9.992188 2.035156 -9.953125 C 1.8125 -9.953125 1.628906 -9.804688 1.367188 -9.730469 C 0.851562 -7.992188 0.296875 -6.253906 -0.148438 -4.515625 C -0.445312 -3.292969 0.148438 -2.664062 1.40625 -2.960938 C 1.8125 -3.035156 2.21875 -3.292969 2.589844 -3.550781 C 3.183594 -4.035156 3.773438 -4.589844 4.328125 -5.105469 C 5.292969 -6.070312 6.253906 -7.03125 7.214844 -7.957031 C 7.84375 -8.546875 8.511719 -9.027344 9.175781 -9.582031 C 9.472656 -8.917969 9.101562 -8.472656 8.953125 -8.03125 C 8.398438 -6.328125 7.769531 -4.625 7.214844 -2.921875 C 7.03125 -2.332031 6.992188 -1.703125 6.957031 -1.074219 C 6.957031 -0.480469 7.289062 -0.148438 7.882812 -0.0742188 C 8.324219 -0.0351562 8.808594 -0.0351562 9.214844 -0.183594 C 9.769531 -0.40625 10.324219 -0.703125 10.804688 -1.109375 C 12.617188 -2.589844 14.429688 -4.105469 16.246094 -5.625 C 16.355469 -5.734375 16.429688 -5.882812 16.652344 -6.179688 C 14.949219 -5.996094 13.949219 -4.882812 12.804688 -4.105469 Z M 12.804688 -4.105469 "/></g></g></g><g fill="#000000" fill-opacity="1"><g transform="translate(216.887449, 272.67209)"><g><path d="M 12.804688 -6.070312 C 12.542969 -5.847656 12.25 -5.660156 12.027344 -5.367188 C 10.507812 -3.625 8.695312 -2.332031 6.699219 -1.40625 C 6.03125 -1.109375 5.292969 -0.960938 4.550781 -0.851562 C 3.773438 -0.777344 3.144531 -1.222656 2.738281 -1.960938 C 2.367188 -2.589844 2.109375 -3.292969 2.292969 -4.253906 C 3.8125 -4.808594 5.03125 -5.660156 6.070312 -6.882812 C 6.550781 -7.402344 6.992188 -8.03125 7.253906 -8.695312 C 7.734375 -9.917969 7.328125 -10.953125 6.253906 -11.472656 C 4.921875 -12.0625 3.664062 -11.839844 2.628906 -10.730469 C 0.960938 -8.992188 -0.0742188 -6.84375 -0.222656 -4.292969 C -0.332031 -2.035156 0.738281 -0.480469 2.664062 0.109375 C 4.253906 0.554688 5.808594 0.480469 7.328125 -0.257812 C 8.992188 -1.035156 10.507812 -2.144531 11.839844 -3.589844 C 12.25 -4.070312 12.617188 -4.625 12.949219 -5.21875 C 13.097656 -5.402344 13.0625 -5.734375 13.097656 -5.996094 C 12.914062 -6.070312 12.839844 -6.105469 12.804688 -6.070312 Z M 4.921875 -10.140625 C 5.253906 -9.695312 5.105469 -9.214844 4.882812 -8.769531 C 4.367188 -7.734375 3.699219 -6.84375 2.703125 -6.105469 C 2.996094 -8.105469 3.664062 -9.289062 4.921875 -10.140625 Z M 4.921875 -10.140625 "/></g></g></g><g fill="#000000" fill-opacity="1"><g transform="translate(228.172483, 272.67209)"><g><path d="M 10.582031 -9.992188 C 8.324219 -6.882812 5.882812 -4.070312 3.292969 -1.40625 C 2.738281 -0.8125 2.183594 -0.148438 1.332031 0.257812 C 1.074219 -0.886719 1.222656 -1.886719 1.40625 -2.886719 C 1.851562 -5.21875 2.664062 -7.402344 3.625 -9.511719 C 3.886719 -10.066406 4.144531 -10.472656 4.808594 -10.472656 C 5.328125 -10.433594 5.585938 -10.914062 5.585938 -11.582031 C 5.625 -12.136719 5.402344 -12.46875 4.921875 -12.65625 C 4.070312 -12.988281 3.257812 -12.804688 2.589844 -12.136719 C 2.21875 -11.804688 1.886719 -11.398438 1.628906 -10.953125 C 0.0742188 -8.472656 -1.109375 -5.734375 -1.703125 -2.703125 C -1.886719 -1.703125 -1.886719 -0.628906 -1.851562 0.40625 C -1.777344 1.777344 -1.109375 2.441406 0.0742188 2.589844 C 1.554688 2.8125 2.703125 2.070312 3.699219 0.886719 C 6.289062 -2.109375 8.808594 -5.21875 10.953125 -8.695312 C 11.324219 -9.289062 11.582031 -9.953125 11.878906 -10.582031 C 11.953125 -10.769531 11.953125 -10.988281 11.988281 -11.324219 C 11.210938 -11.101562 10.914062 -10.472656 10.582031 -9.992188 Z M 10.582031 -9.992188 "/></g></g></g><g fill="#000000" fill-opacity="1"><g transform="translate(237.903517, 272.67209)"><g><path d="M 19.425781 -23.683594 C 18.167969 -23.792969 16.949219 -23.902344 15.6875 -23.828125 C 12.949219 -23.757812 10.175781 -23.570312 7.4375 -23.421875 C 7.066406 -23.421875 6.699219 -23.496094 6.253906 -23.535156 C 6.511719 -24.53125 6.734375 -25.421875 6.957031 -26.273438 C 7.179688 -27.125 7.695312 -27.902344 7.660156 -28.863281 C 6.773438 -29.234375 6.140625 -28.9375 5.773438 -28.234375 C 5.328125 -27.382812 4.957031 -26.496094 4.625 -25.605469 C 4.367188 -24.828125 4.144531 -24.015625 3.886719 -23.164062 C 2.8125 -23.015625 1.8125 -22.90625 0.8125 -22.757812 C -0.886719 -22.535156 -2.554688 -22.3125 -4.21875 -22.015625 C -4.847656 -21.90625 -5.550781 -21.867188 -5.996094 -21.203125 C -5.105469 -20.722656 -5.105469 -20.722656 -4.589844 -20.796875 C -2.21875 -21.09375 0.109375 -21.386719 2.441406 -21.683594 C 2.738281 -21.722656 3.070312 -21.609375 3.441406 -21.574219 C 3.332031 -21.019531 3.21875 -20.574219 3.109375 -20.167969 C 1.738281 -14.875 0.445312 -9.546875 -0.628906 -4.21875 C -1.441406 -0.296875 -2.21875 3.625 -2.664062 7.621094 C -2.703125 8.175781 -2.703125 8.734375 -2.664062 9.289062 C -2.628906 9.546875 -2.480469 9.84375 -2 9.769531 C -1.886719 9.324219 -1.738281 8.878906 -1.628906 8.398438 C -1.441406 7.402344 -1.257812 6.402344 -1.074219 5.402344 C 0.851562 -3.515625 3.402344 -12.285156 5.625 -21.128906 C 5.699219 -21.460938 5.882812 -21.722656 6.03125 -22.015625 C 10.804688 -22.460938 15.46875 -23.015625 20.242188 -23.3125 C 19.980469 -23.460938 19.6875 -23.683594 19.425781 -23.683594 Z M 19.425781 -23.683594 "/></g></g></g></svg>