<svg xmlns="http://www.w3.org/2000/svg" xmlns:xlink="http://www.w3.org/1999/xlink" width="182" zoomAndPan="magnify" viewBox="0 0 136.5 127.500001" height="170" preserveAspectRatio="xMidYMid meet" version="1.0"><defs><g/></defs><g fill="#00bf63" fill-opacity="1"><g transform="translate(102.357518, 82.325347)"><g><path d="M 1.65625 -13.109375 L 5.734375 -13.109375 C 7.585938 -13.109375 8.929688 -12.84375 9.765625 -12.3125 C 10.609375 -11.78125 11.03125 -10.941406 11.03125 -9.796875 C 11.03125 -9.003906 10.847656 -8.359375 10.484375 -7.859375 C 10.117188 -7.359375 9.628906 -7.054688 9.015625 -6.953125 L 9.015625 -6.859375 C 9.847656 -6.679688 10.445312 -6.335938 10.8125 -5.828125 C 11.175781 -5.316406 11.359375 -4.640625 11.359375 -3.796875 C 11.359375 -2.609375 10.925781 -1.675781 10.0625 -1 C 9.207031 -0.332031 8.035156 0 6.546875 0 L 1.65625 0 Z M 4.421875 -7.921875 L 6.046875 -7.921875 C 6.796875 -7.921875 7.335938 -8.035156 7.671875 -8.265625 C 8.015625 -8.492188 8.1875 -8.878906 8.1875 -9.421875 C 8.1875 -9.921875 8 -10.28125 7.625 -10.5 C 7.257812 -10.71875 6.679688 -10.828125 5.890625 -10.828125 L 4.421875 -10.828125 Z M 4.421875 -5.703125 L 4.421875 -2.296875 L 6.234375 -2.296875 C 7.003906 -2.296875 7.570312 -2.441406 7.9375 -2.734375 C 8.300781 -3.023438 8.484375 -3.472656 8.484375 -4.078125 C 8.484375 -5.160156 7.707031 -5.703125 6.15625 -5.703125 Z M 4.421875 -5.703125 "/></g></g></g><g fill="#00bf63" fill-opacity="1"><g transform="translate(114.695803, 82.325347)"><g><path d="M 12.53125 -6.671875 C 12.53125 -4.515625 11.914062 -2.863281 10.6875 -1.71875 C 9.457031 -0.570312 7.679688 0 5.359375 0 L 1.65625 0 L 1.65625 -13.109375 L 5.765625 -13.109375 C 7.898438 -13.109375 9.5625 -12.539062 10.75 -11.40625 C 11.9375 -10.28125 12.53125 -8.703125 12.53125 -6.671875 Z M 9.640625 -6.609375 C 9.640625 -9.421875 8.394531 -10.828125 5.90625 -10.828125 L 4.421875 -10.828125 L 4.421875 -2.296875 L 5.625 -2.296875 C 8.300781 -2.296875 9.640625 -3.734375 9.640625 -6.609375 Z M 9.640625 -6.609375 "/></g></g></g><g fill="#000000" fill-opacity="1"><g transform="translate(12.996683, 61.400492)"><g><path d="M 18.046875 -7.90625 C 18.289062 -9.921875 18.53125 -11.933594 18.773438 -13.972656 C 19.089844 -16.277344 19.429688 -18.582031 19.722656 -20.886719 C 19.792969 -21.347656 19.816406 -21.832031 19.816406 -22.316406 C 19.816406 -22.875 19.550781 -23.117188 18.992188 -23.140625 C 18.53125 -23.164062 18.121094 -22.996094 17.804688 -22.65625 C 17.34375 -22.171875 16.882812 -21.6875 16.46875 -21.175781 C 13.65625 -17.636719 11.253906 -13.828125 9.289062 -9.75 C 8.417969 -7.957031 7.566406 -6.136719 6.71875 -4.34375 C 6.5 -3.882812 6.234375 -3.566406 5.726562 -3.371094 C 5.046875 -3.105469 4.367188 -2.789062 3.710938 -2.449219 C 2.984375 -2.085938 2.28125 -1.671875 1.601562 -1.261719 C 1.382812 -1.140625 1.140625 -0.96875 1.210938 -0.628906 C 1.601562 -0.265625 2.0625 -0.242188 2.546875 -0.414062 C 3.324219 -0.679688 4.050781 -0.996094 4.828125 -1.285156 C 4.972656 -1.335938 5.140625 -1.308594 5.386719 -1.359375 C 5.238281 -0.921875 5.117188 -0.628906 4.996094 -0.316406 C 4.585938 0.945312 4.125 2.207031 3.761719 3.46875 C 3.566406 4.097656 3.492188 4.777344 3.394531 5.433594 C 3.371094 5.601562 3.394531 5.820312 3.492188 5.96875 C 3.566406 6.089844 3.761719 6.210938 3.929688 6.210938 C 4.027344 6.234375 4.195312 6.089844 4.246094 5.992188 C 4.390625 5.53125 4.4375 5.046875 4.632812 4.585938 C 5.433594 2.5 6.28125 0.414062 7.105469 -1.699219 C 7.300781 -2.183594 7.617188 -2.449219 8.101562 -2.621094 C 10.40625 -3.445312 12.6875 -4.292969 14.992188 -5.117188 C 15.210938 -5.191406 15.476562 -5.214844 15.765625 -5.289062 C 15.765625 -4.898438 15.792969 -4.558594 15.765625 -4.246094 C 15.671875 -3.25 15.597656 -2.257812 15.5 -1.261719 C 15.210938 1.648438 15.039062 4.558594 15.136719 7.472656 C 15.160156 8.320312 15.257812 9.167969 15.355469 10.019531 C 15.402344 10.382812 15.5 10.746094 15.644531 11.085938 C 15.816406 11.523438 16.15625 11.8125 16.640625 11.835938 C 17.148438 11.886719 17.5625 11.714844 17.851562 11.160156 C 17.539062 11.085938 17.269531 11.011719 16.980469 10.914062 C 16.929688 10.671875 16.882812 10.480469 16.859375 10.261719 C 16.664062 8.734375 16.664062 7.230469 16.785156 5.726562 C 17.054688 2.546875 17.320312 -0.605469 17.609375 -3.785156 C 17.660156 -4.511719 17.78125 -5.238281 17.878906 -5.96875 C 19.695312 -6.476562 21.394531 -7.011719 23.214844 -7.15625 C 23.214844 -7.324219 23.214844 -7.421875 23.191406 -7.542969 C 23.164062 -7.640625 23.09375 -7.738281 23.019531 -7.835938 C 21.371094 -8.125 19.816406 -7.566406 18.097656 -7.351562 C 18.070312 -7.617188 18.046875 -7.761719 18.046875 -7.90625 Z M 18.144531 -21.03125 C 18.070312 -19.792969 17.78125 -18.679688 17.585938 -17.539062 C 17.390625 -16.347656 17.199219 -15.136719 17.027344 -13.949219 C 16.835938 -12.757812 16.664062 -11.59375 16.496094 -10.429688 C 16.324219 -9.265625 16.203125 -8.101562 16.035156 -6.839844 C 14.820312 -6.429688 13.558594 -6.160156 12.324219 -5.773438 C 11.109375 -5.386719 9.898438 -4.996094 8.636719 -4.609375 C 9.386719 -7.566406 15.765625 -18.582031 18.144531 -21.03125 Z M 18.144531 -21.03125 "/></g></g></g><g fill="#000000" fill-opacity="1"><g transform="translate(35.845099, 61.400492)"><g><path d="M 11.621094 -2.28125 C 10.574219 -1.648438 9.53125 -0.996094 8.488281 -0.363281 C 8.367188 -0.292969 8.199219 -0.242188 7.90625 -0.144531 C 8.027344 -0.558594 8.101562 -0.824219 8.175781 -1.089844 C 8.683594 -2.570312 9.097656 -4.074219 9.265625 -5.628906 C 9.316406 -6.136719 9.339844 -6.644531 9.289062 -7.15625 C 9.21875 -7.90625 8.757812 -8.246094 8.003906 -8.222656 C 7.59375 -8.222656 7.203125 -8.054688 6.914062 -7.761719 C 6.621094 -7.496094 6.355469 -7.179688 6.089844 -6.863281 C 5.726562 -6.453125 5.410156 -6.015625 5.09375 -5.628906 C 3.324219 -5.507812 2.570312 -5.265625 1.140625 -4.222656 C 0.582031 -3.785156 0.0742188 -3.300781 -0.4375 -2.839844 C -0.65625 -2.621094 -0.824219 -2.402344 -0.996094 -2.132812 C -1.550781 -1.210938 -1.210938 -0.460938 -0.121094 -0.316406 C 0.292969 -0.265625 0.753906 -0.339844 1.1875 -0.414062 C 1.890625 -0.582031 2.5 -0.945312 3.007812 -1.429688 C 3.589844 -1.941406 4.171875 -2.472656 4.65625 -3.054688 C 5.433594 -4.003906 6.160156 -4.996094 6.890625 -5.96875 C 7.15625 -6.308594 7.375 -6.695312 7.785156 -6.960938 C 8.125 -6.597656 8.003906 -6.1875 7.980469 -5.796875 C 7.859375 -3.785156 7.277344 -1.867188 6.644531 0.0234375 C 6.402344 0.753906 5.992188 1.285156 5.335938 1.699219 C 2.644531 3.421875 0 5.167969 -2.644531 6.9375 C -4.292969 8.054688 -5.871094 9.265625 -7.253906 10.722656 C -7.785156 11.304688 -8.246094 11.910156 -8.660156 12.566406 C -8.878906 12.878906 -8.976562 13.316406 -9.023438 13.707031 C -9.097656 14.289062 -8.855469 14.601562 -8.320312 14.820312 C -7.738281 15.039062 -7.15625 15.039062 -6.574219 14.917969 C -5.628906 14.75 -4.730469 14.410156 -3.855469 13.996094 C 0.265625 11.957031 3.347656 8.878906 5.554688 4.898438 C 6.039062 3.976562 6.523438 3.054688 6.914062 2.109375 C 7.230469 1.261719 7.761719 0.679688 8.515625 0.195312 C 9.75 -0.582031 10.964844 -1.429688 12.175781 -2.28125 C 12.371094 -2.402344 12.566406 -2.570312 12.734375 -2.71875 C 12.324219 -2.644531 11.957031 -2.472656 11.621094 -2.28125 Z M 4.511719 -4.804688 C 3.664062 -3.636719 2.765625 -2.546875 1.601562 -1.671875 C 1.308594 -1.480469 0.996094 -1.308594 0.558594 -1.042969 C 0.414062 -1.722656 0.679688 -2.039062 0.921875 -2.328125 C 1.890625 -3.492188 3.007812 -4.488281 4.488281 -5.140625 C 4.488281 -4.996094 4.558594 -4.875 4.511719 -4.804688 Z M 5.433594 2.910156 C 3.46875 7.15625 0.679688 10.625 -3.445312 12.929688 C -4.34375 13.4375 -5.335938 13.777344 -6.28125 14.191406 C -6.453125 14.261719 -6.621094 14.3125 -6.816406 14.335938 C -7.496094 14.457031 -7.8125 14.117188 -7.566406 13.4375 C -7.421875 13.027344 -7.230469 12.613281 -6.960938 12.273438 C -6.574219 11.742188 -6.160156 11.207031 -5.675781 10.769531 C -4.488281 9.65625 -3.300781 8.539062 -1.988281 7.566406 C 0.265625 5.894531 2.59375 4.316406 4.875 2.71875 C 5.046875 2.59375 5.238281 2.523438 5.578125 2.378906 C 5.507812 2.667969 5.480469 2.789062 5.433594 2.910156 Z M 5.433594 2.910156 "/></g></g></g><g fill="#000000" fill-opacity="1"><g transform="translate(47.390583, 61.400492)"><g><path d="M 7.105469 -6.863281 C 6.9375 -7.496094 6.550781 -7.785156 5.894531 -7.738281 C 5.386719 -7.691406 4.972656 -7.496094 4.632812 -7.105469 C 4.027344 -6.378906 3.421875 -5.628906 2.789062 -4.898438 C 2.644531 -4.707031 2.472656 -4.511719 2.160156 -4.171875 C 2.257812 -5.507812 2.886719 -6.5 2.960938 -7.691406 C 2.472656 -7.859375 2.183594 -7.785156 1.988281 -7.445312 C 1.84375 -7.230469 1.722656 -6.984375 1.625 -6.769531 C 0.875 -4.996094 0.121094 -3.226562 -0.628906 -1.457031 C -0.753906 -1.164062 -0.847656 -0.847656 -0.921875 -0.535156 C -1.042969 -0.0234375 -0.800781 0.265625 -0.265625 0.265625 C 0.0976562 0.265625 0.460938 0.167969 0.726562 -0.121094 C 1.042969 -0.414062 1.359375 -0.726562 1.625 -1.089844 C 2.183594 -1.796875 2.667969 -2.523438 3.203125 -3.226562 C 3.855469 -4.097656 4.535156 -4.972656 5.238281 -5.847656 C 5.386719 -6.039062 5.578125 -6.1875 5.847656 -6.402344 C 5.96875 -6.039062 6.0625 -5.773438 6.136719 -5.507812 C 6.210938 -5.289062 6.234375 -5.070312 6.355469 -4.875 C 6.429688 -4.753906 6.621094 -4.632812 6.769531 -4.609375 C 6.839844 -4.609375 7.011719 -4.777344 7.058594 -4.898438 C 7.253906 -5.554688 7.253906 -6.210938 7.105469 -6.863281 Z M 7.105469 -6.863281 "/></g></g></g><g fill="#000000" fill-opacity="1"><g transform="translate(55.879909, 61.400492)"><g><path d="M 8.222656 -6.332031 C 7.738281 -6.136719 7.617188 -5.773438 7.421875 -5.480469 C 6.234375 -3.90625 4.828125 -2.570312 3.128906 -1.527344 C 2.667969 -1.238281 2.207031 -0.945312 1.550781 -0.898438 C 1.457031 -1.140625 1.335938 -1.359375 1.308594 -1.601562 C 1.308594 -1.890625 1.359375 -2.183594 1.429688 -2.472656 C 1.746094 -3.492188 2.0625 -4.511719 2.402344 -5.53125 C 2.5 -5.871094 2.691406 -6.210938 2.644531 -6.574219 C 1.820312 -6.863281 1.578125 -6.816406 1.210938 -6.210938 C 0.535156 -5.019531 0 -3.761719 -0.316406 -2.425781 C -0.339844 -2.28125 -0.363281 -2.132812 -0.386719 -1.988281 C -0.535156 -0.800781 -0.0234375 -0.167969 1.1875 -0.121094 C 2.039062 -0.0742188 2.789062 -0.292969 3.515625 -0.726562 C 5.191406 -1.769531 6.621094 -3.082031 7.691406 -4.777344 C 7.90625 -5.117188 8.078125 -5.480469 8.222656 -5.871094 C 8.273438 -5.96875 8.222656 -6.113281 8.222656 -6.332031 Z M 3.105469 -8.855469 C 3.226562 -8.949219 3.324219 -9.046875 3.394531 -9.167969 C 3.566406 -9.53125 3.710938 -9.898438 3.929688 -10.332031 C 3.25 -10.527344 2.667969 -10.503906 2.109375 -10.1875 C 1.671875 -9.945312 1.527344 -9.386719 1.746094 -9.046875 C 2.039062 -8.609375 2.691406 -8.515625 3.105469 -8.855469 Z M 3.105469 -8.855469 "/></g></g></g><g fill="#000000" fill-opacity="1"><g transform="translate(62.938175, 61.400492)"><g><path d="M 15.210938 -18.652344 C 15.765625 -19.210938 16.132812 -19.890625 16.324219 -20.667969 C 16.640625 -22 15.839844 -23.09375 14.433594 -23.214844 C 13.511719 -23.285156 12.6875 -22.972656 11.984375 -22.390625 C 11.207031 -21.734375 10.550781 -20.984375 9.96875 -20.183594 C 8.949219 -18.773438 8.027344 -17.296875 7.253906 -15.742188 C 4.558594 -10.480469 2.621094 -4.949219 1.1875 0.753906 C 0.898438 1.867188 0.726562 3.007812 0.824219 4.171875 C 0.898438 5.3125 1.429688 5.796875 2.59375 5.871094 C 3.347656 5.894531 4.074219 5.699219 4.707031 5.289062 C 5.335938 4.851562 5.96875 4.390625 6.523438 3.855469 C 7.351562 3.054688 8.125 2.207031 8.878906 1.359375 C 10.671875 -0.753906 12.371094 -2.960938 13.828125 -5.335938 C 14.09375 -5.796875 14.410156 -6.257812 14.578125 -6.890625 C 14.335938 -6.863281 14.117188 -6.914062 13.996094 -6.839844 C 13.800781 -6.695312 13.632812 -6.476562 13.460938 -6.28125 C 12.976562 -5.652344 12.492188 -4.996094 11.984375 -4.34375 C 10.066406 -1.84375 8.101562 0.605469 5.820312 2.765625 C 5.070312 3.46875 4.222656 4.074219 3.421875 4.707031 C 3.25 4.828125 3.03125 4.851562 2.839844 4.925781 C 2.523438 4.050781 2.449219 3.832031 2.546875 3.128906 C 2.667969 2.132812 2.789062 1.140625 3.007812 0.167969 C 4.097656 -4.511719 5.652344 -9.046875 7.664062 -13.4375 C 8.609375 -15.476562 9.65625 -17.488281 10.988281 -19.308594 C 11.570312 -20.132812 12.226562 -20.859375 12.90625 -21.613281 C 13.21875 -21.953125 13.585938 -22.292969 14.09375 -22.339844 C 14.53125 -22.148438 14.699219 -21.757812 14.75 -21.371094 C 14.820312 -20.910156 14.820312 -20.425781 14.796875 -19.9375 C 14.773438 -19.480469 14.652344 -18.992188 14.503906 -18.289062 C 14.871094 -18.460938 15.089844 -18.507812 15.210938 -18.652344 Z M 15.210938 -18.652344 "/></g></g></g><g fill="#000000" fill-opacity="1"><g transform="translate(76.011741, 61.400492)"><g><path d="M 5.773438 -2.472656 C 5.3125 -2.328125 4.851562 -2.183594 4.34375 -2.378906 C 4.488281 -2.742188 4.609375 -3.082031 4.730469 -3.394531 C 5.019531 -4.195312 5.265625 -4.996094 5.289062 -5.847656 C 5.335938 -6.9375 4.925781 -7.566406 4.148438 -7.664062 C 3.929688 -7.691406 3.710938 -7.664062 3.492188 -7.617188 C 2.8125 -7.472656 2.230469 -7.035156 1.699219 -6.453125 C 1.140625 -5.847656 0.726562 -5.140625 0.753906 -4.195312 C 0.484375 -3.761719 0.21875 -3.347656 -0.0234375 -2.933594 C -0.292969 -2.402344 -0.558594 -1.84375 -0.65625 -1.210938 C -0.777344 -0.339844 -0.558594 0.242188 0.046875 0.4375 C 0.414062 0.558594 0.824219 0.558594 1.1875 0.484375 C 1.769531 0.386719 2.304688 0 2.789062 -0.484375 C 3.175781 -0.847656 3.566406 -1.238281 4.003906 -1.671875 C 5.628906 -1.722656 5.820312 -1.769531 6.429688 -2.378906 C 6.0625 -2.59375 6.0625 -2.59375 5.773438 -2.472656 Z M 0.753906 -0.046875 C 0.507812 -0.0234375 0.316406 -0.167969 0.316406 -0.507812 C 0.292969 -0.824219 0.316406 -1.164062 0.386719 -1.480469 C 0.558594 -2.109375 0.777344 -2.71875 1.164062 -3.300781 C 1.503906 -3.007812 1.746094 -2.765625 2.011719 -2.546875 C 2.28125 -2.351562 2.570312 -2.160156 2.863281 -1.964844 C 2.449219 -1.117188 1.382812 -0.167969 0.753906 -0.046875 Z M 3.421875 -2.71875 C 2.839844 -3.007812 2.472656 -3.421875 2.304688 -4.171875 C 2.207031 -4.609375 2.207031 -4.949219 2.402344 -5.335938 C 2.8125 -6.113281 3.324219 -6.742188 4.003906 -7.011719 C 4.316406 -6.839844 4.367188 -6.453125 4.367188 -6.089844 C 4.367188 -4.851562 4.027344 -3.734375 3.421875 -2.71875 Z M 3.421875 -2.71875 "/></g></g></g><g fill="#000000" fill-opacity="1"><g transform="translate(81.784482, 61.400492)"><g><path d="M 8.394531 -2.691406 C 7.59375 -2.207031 6.914062 -1.503906 5.917969 -1.042969 C 6.039062 -1.527344 6.113281 -1.890625 6.234375 -2.207031 C 6.621094 -3.25 7.035156 -4.292969 7.398438 -5.335938 C 7.542969 -5.699219 7.664062 -6.089844 7.738281 -6.5 C 7.835938 -7.15625 7.542969 -7.421875 6.863281 -7.445312 C 6.429688 -7.472656 6.039062 -7.375 5.699219 -7.132812 C 5.117188 -6.695312 4.511719 -6.257812 3.953125 -5.773438 C 3.300781 -5.191406 2.691406 -4.535156 2.0625 -3.90625 C 1.941406 -3.808594 1.796875 -3.734375 1.503906 -3.515625 C 1.746094 -4.34375 1.964844 -4.972656 2.109375 -5.601562 C 2.28125 -6.308594 2.0625 -6.550781 1.335938 -6.523438 C 1.1875 -6.523438 1.066406 -6.429688 0.898438 -6.378906 C 0.558594 -5.238281 0.195312 -4.097656 -0.0976562 -2.960938 C -0.292969 -2.160156 0.0976562 -1.746094 0.921875 -1.941406 C 1.1875 -1.988281 1.457031 -2.160156 1.699219 -2.328125 C 2.085938 -2.644531 2.472656 -3.007812 2.839844 -3.347656 C 3.46875 -3.976562 4.097656 -4.609375 4.730469 -5.214844 C 5.140625 -5.601562 5.578125 -5.917969 6.015625 -6.28125 C 6.210938 -5.847656 5.96875 -5.554688 5.871094 -5.265625 C 5.507812 -4.148438 5.09375 -3.03125 4.730469 -1.917969 C 4.609375 -1.527344 4.585938 -1.117188 4.558594 -0.703125 C 4.558594 -0.316406 4.777344 -0.0976562 5.167969 -0.046875 C 5.457031 -0.0234375 5.773438 -0.0234375 6.039062 -0.121094 C 6.402344 -0.265625 6.769531 -0.460938 7.082031 -0.726562 C 8.273438 -1.699219 9.460938 -2.691406 10.648438 -3.6875 C 10.722656 -3.761719 10.769531 -3.855469 10.914062 -4.050781 C 9.800781 -3.929688 9.144531 -3.203125 8.394531 -2.691406 Z M 8.394531 -2.691406 "/></g></g></g><g fill="#000000" fill-opacity="1"><g transform="translate(91.510822, 61.400492)"><g><path d="M 8.394531 -2.691406 C 7.59375 -2.207031 6.914062 -1.503906 5.917969 -1.042969 C 6.039062 -1.527344 6.113281 -1.890625 6.234375 -2.207031 C 6.621094 -3.25 7.035156 -4.292969 7.398438 -5.335938 C 7.542969 -5.699219 7.664062 -6.089844 7.738281 -6.5 C 7.835938 -7.15625 7.542969 -7.421875 6.863281 -7.445312 C 6.429688 -7.472656 6.039062 -7.375 5.699219 -7.132812 C 5.117188 -6.695312 4.511719 -6.257812 3.953125 -5.773438 C 3.300781 -5.191406 2.691406 -4.535156 2.0625 -3.90625 C 1.941406 -3.808594 1.796875 -3.734375 1.503906 -3.515625 C 1.746094 -4.34375 1.964844 -4.972656 2.109375 -5.601562 C 2.28125 -6.308594 2.0625 -6.550781 1.335938 -6.523438 C 1.1875 -6.523438 1.066406 -6.429688 0.898438 -6.378906 C 0.558594 -5.238281 0.195312 -4.097656 -0.0976562 -2.960938 C -0.292969 -2.160156 0.0976562 -1.746094 0.921875 -1.941406 C 1.1875 -1.988281 1.457031 -2.160156 1.699219 -2.328125 C 2.085938 -2.644531 2.472656 -3.007812 2.839844 -3.347656 C 3.46875 -3.976562 4.097656 -4.609375 4.730469 -5.214844 C 5.140625 -5.601562 5.578125 -5.917969 6.015625 -6.28125 C 6.210938 -5.847656 5.96875 -5.554688 5.871094 -5.265625 C 5.507812 -4.148438 5.09375 -3.03125 4.730469 -1.917969 C 4.609375 -1.527344 4.585938 -1.117188 4.558594 -0.703125 C 4.558594 -0.316406 4.777344 -0.0976562 5.167969 -0.046875 C 5.457031 -0.0234375 5.773438 -0.0234375 6.039062 -0.121094 C 6.402344 -0.265625 6.769531 -0.460938 7.082031 -0.726562 C 8.273438 -1.699219 9.460938 -2.691406 10.648438 -3.6875 C 10.722656 -3.761719 10.769531 -3.855469 10.914062 -4.050781 C 9.800781 -3.929688 9.144531 -3.203125 8.394531 -2.691406 Z M 8.394531 -2.691406 "/></g></g></g><g fill="#000000" fill-opacity="1"><g transform="translate(101.237161, 61.400492)"><g><path d="M 8.394531 -3.976562 C 8.222656 -3.832031 8.027344 -3.710938 7.882812 -3.515625 C 6.890625 -2.378906 5.699219 -1.527344 4.390625 -0.921875 C 3.953125 -0.726562 3.46875 -0.628906 2.984375 -0.558594 C 2.472656 -0.507812 2.0625 -0.800781 1.796875 -1.285156 C 1.550781 -1.699219 1.382812 -2.160156 1.503906 -2.789062 C 2.5 -3.152344 3.300781 -3.710938 3.976562 -4.511719 C 4.292969 -4.851562 4.585938 -5.265625 4.753906 -5.699219 C 5.070312 -6.5 4.804688 -7.179688 4.097656 -7.519531 C 3.226562 -7.90625 2.402344 -7.761719 1.722656 -7.035156 C 0.628906 -5.894531 -0.046875 -4.488281 -0.144531 -2.8125 C -0.21875 -1.335938 0.484375 -0.316406 1.746094 0.0742188 C 2.789062 0.363281 3.808594 0.316406 4.804688 -0.167969 C 5.894531 -0.679688 6.890625 -1.40625 7.761719 -2.351562 C 8.027344 -2.667969 8.273438 -3.03125 8.488281 -3.421875 C 8.585938 -3.542969 8.5625 -3.761719 8.585938 -3.929688 C 8.464844 -3.976562 8.417969 -4.003906 8.394531 -3.976562 Z M 3.226562 -6.644531 C 3.445312 -6.355469 3.347656 -6.039062 3.203125 -5.75 C 2.863281 -5.070312 2.425781 -4.488281 1.769531 -4.003906 C 1.964844 -5.3125 2.402344 -6.089844 3.226562 -6.644531 Z M 3.226562 -6.644531 "/></g></g></g><g fill="#000000" fill-opacity="1"><g transform="translate(108.634999, 61.400492)"><g><path d="M 6.9375 -6.550781 C 5.457031 -4.511719 3.855469 -2.667969 2.160156 -0.921875 C 1.796875 -0.535156 1.429688 -0.0976562 0.875 0.167969 C 0.703125 -0.582031 0.800781 -1.238281 0.921875 -1.890625 C 1.210938 -3.421875 1.746094 -4.851562 2.378906 -6.234375 C 2.546875 -6.597656 2.71875 -6.863281 3.152344 -6.863281 C 3.492188 -6.839844 3.664062 -7.15625 3.664062 -7.59375 C 3.6875 -7.957031 3.542969 -8.175781 3.226562 -8.296875 C 2.667969 -8.515625 2.132812 -8.394531 1.699219 -7.957031 C 1.457031 -7.738281 1.238281 -7.472656 1.066406 -7.179688 C 0.046875 -5.554688 -0.726562 -3.761719 -1.117188 -1.769531 C -1.238281 -1.117188 -1.238281 -0.414062 -1.210938 0.265625 C -1.164062 1.164062 -0.726562 1.601562 0.046875 1.699219 C 1.019531 1.84375 1.769531 1.359375 2.425781 0.582031 C 4.125 -1.382812 5.773438 -3.421875 7.179688 -5.699219 C 7.421875 -6.089844 7.59375 -6.523438 7.785156 -6.9375 C 7.835938 -7.058594 7.835938 -7.203125 7.859375 -7.421875 C 7.351562 -7.277344 7.15625 -6.863281 6.9375 -6.550781 Z M 6.9375 -6.550781 "/></g></g></g><g fill="#000000" fill-opacity="1"><g transform="translate(115.014121, 61.400492)"><g><path d="M 12.734375 -15.523438 C 11.910156 -15.597656 11.109375 -15.671875 10.285156 -15.621094 C 8.488281 -15.574219 6.671875 -15.453125 4.875 -15.355469 C 4.632812 -15.355469 4.390625 -15.402344 4.097656 -15.425781 C 4.269531 -16.082031 4.414062 -16.664062 4.558594 -17.222656 C 4.707031 -17.78125 5.046875 -18.289062 5.019531 -18.921875 C 4.4375 -19.164062 4.027344 -18.96875 3.785156 -18.507812 C 3.492188 -17.949219 3.25 -17.367188 3.03125 -16.785156 C 2.863281 -16.277344 2.71875 -15.742188 2.546875 -15.183594 C 1.84375 -15.089844 1.1875 -15.015625 0.535156 -14.917969 C -0.582031 -14.773438 -1.671875 -14.628906 -2.765625 -14.433594 C -3.175781 -14.359375 -3.636719 -14.335938 -3.929688 -13.898438 C -3.347656 -13.585938 -3.347656 -13.585938 -3.007812 -13.632812 C -1.457031 -13.828125 0.0742188 -14.019531 1.601562 -14.214844 C 1.796875 -14.238281 2.011719 -14.167969 2.257812 -14.140625 C 2.183594 -13.777344 2.109375 -13.488281 2.039062 -13.21875 C 1.140625 -9.75 0.292969 -6.257812 -0.414062 -2.765625 C -0.945312 -0.195312 -1.457031 2.378906 -1.746094 4.996094 C -1.769531 5.359375 -1.769531 5.726562 -1.746094 6.089844 C -1.722656 6.257812 -1.625 6.453125 -1.308594 6.402344 C -1.238281 6.113281 -1.140625 5.820312 -1.066406 5.507812 C -0.945312 4.851562 -0.824219 4.195312 -0.703125 3.542969 C 0.558594 -2.304688 2.230469 -8.054688 3.6875 -13.851562 C 3.734375 -14.070312 3.855469 -14.238281 3.953125 -14.433594 C 7.082031 -14.722656 10.140625 -15.089844 13.269531 -15.28125 C 13.097656 -15.378906 12.90625 -15.523438 12.734375 -15.523438 Z M 12.734375 -15.523438 "/></g></g></g></svg>